# xmcd
#
# Track frame offsets:
#	150
#	15600
#	37275
#	49237
#	64800
#	73350
#	85200
#	97312
#	109162
#	120787
#	138037
#	146437
#	161212
#	182100
#	193087
#
# Disc length: 2753 seconds
#
# Revision: 0
# Processed by: cddbd v1.4b42PL0 Copyright (c) Steve Scherf et al.
# Submitted via: dBpowerAMP V4.0
#
DISCID=e00abf0f
DTITLE=Bill Morrissey - Songs of Mississippi John Hurt
DYEAR=1999
DGENRE=Blues
TTITLE0=If You Don't Want Me
TTITLE1=Avalon Blues
TTITLE2=Shake that Thing
TTITLE3=Louis Collins
TTITLE4=First Shot Missed Him
TTITLE5=Big Leg Blues
TTITLE6=Hey, Honey, Right Away
TTITLE7=Joe Turner Blues
TTITLE8=I'm Satisfied
TTITLE9=Beulah Land
TTITLE10=Funky Butt
TTITLE11=Coffee Blues
TTITLE12=Monday Morning Blues
TTITLE13=Good Morning, Miss Carrie
TTITLE14=Hot Time in the Old Town Tonight
EXTD=
EXTT0=
EXTT1=
EXTT2=
EXTT3=
EXTT4=
EXTT5=
EXTT6=
EXTT7=
EXTT8=
EXTT9=
EXTT10=
EXTT11=
EXTT12=
EXTT13=
EXTT14=
PLAYORDER=
